<svg id="Ebene_1" data-name="Ebene 1" xmlns="http://www.w3.org/2000/svg" viewBox="0 0 89.93 88.18">
  <title>enclosed-circle_outline2</title>
  <g>
    <path d="M35.3,84C15.68,78.6-1.06,56,6.63,31.67h0L3.07,28.08A45,45,0,0,0,28.84,86.26a44.12,44.12,0,0,0,6.46,2Z" transform="translate(-0.03 -0.03)"/>
    <path d="M54.84,88.18a45,45,0,0,0,32-60.35h0L83.62,31.1c6.34,28-9.26,46.95-28.78,52.5" transform="translate(-0.03 -0.03)"/>
  </g>
  <path d="M18.06,15.42a41.84,41.84,0,0,1,54-.18l3.38-3.38a45,45,0,0,0-60.87.05Z" transform="translate(-0.03 -0.03)"/>
</svg>
